# xmcd
#
# Track frame offsets: 
#        150
#        23797
#        46187
#        66905
#        88230
#        109220
#        130047
#        151425
#        168162
#        188870
#
# Disc length: 2788 seconds
#
# Revision: 0
# Processed by: cddbd v1.5.2PL0 Copyright (c) Steve Scherf et al.
# Submitted via: ExactAudioCopy v0.99pb5
#
DISCID=7f0ae20a
DTITLE=The Fit - Just Havin' Fun
DYEAR=1988
DGENRE=R&B
TTITLE0=Just Havin' Fun
TTITLE1=Under Your Spell
TTITLE2=Sweet Surrender
TTITLE3=Here We Go
TTITLE4=I Wanna Know
TTITLE5=Stand Up
TTITLE6=I Need My Lover
TTITLE7=If We Take Our Time
TTITLE8=Somebody Tell Me
TTITLE9=Paradise
EXTD=
EXTT0=
EXTT1=
EXTT2=
EXTT3=
EXTT4=
EXTT5=
EXTT6=
EXTT7=
EXTT8=
EXTT9=
PLAYORDER=
